<svg width="12" height="8" viewBox="0 0 12 8" fill="none" xmlns="http://www.w3.org/2000/svg">
<path d="M0.589737 0.588754C1.37605 -0.196239 2.65092 -0.196239 3.43724 0.588754L7.42374 4.56855C8.21005 5.35354 8.21005 6.62626 7.42374 7.41126C6.63742 8.19625 5.36255 8.19625 4.57624 7.41126L0.589737 3.43146C-0.196579 2.64647 -0.196579 1.37375 0.589737 0.588754Z" fill="#383D50"/>
<path d="M11.4103 0.588744C12.1966 1.37374 12.1966 2.64646 11.4103 3.43145L7.42374 7.41126C6.63742 8.19625 5.36255 8.19625 4.57624 7.41126C3.78992 6.62626 3.78995 5.35353 4.57626 4.56854L8.56276 0.588744C9.34908 -0.196248 10.6239 -0.196248 11.4103 0.588744Z" fill="#383D50"/>
</svg>
