<svg width="36" height="36" viewBox="0 0 36 36" fill="none" xmlns="http://www.w3.org/2000/svg">
<path fill-rule="evenodd" clip-rule="evenodd" d="M3.27273 18C3.27273 16.066 3.65366 14.1509 4.39377 12.3641C5.13389 10.5773 6.21869 8.9538 7.58625 7.58625C8.9538 6.21869 10.5773 5.13389 12.3641 4.39377C14.1509 3.65366 16.066 3.27273 18 3.27273C19.934 3.27273 21.8491 3.65366 23.6359 4.39377C25.4227 5.13389 27.0462 6.21869 28.4138 7.58625C29.7813 8.9538 30.8661 10.5773 31.6062 12.3641C32.3463 14.1509 32.7273 16.066 32.7273 18C32.7273 21.9059 31.1757 25.6519 28.4138 28.4138C25.6519 31.1757 21.9059 32.7273 18 32.7273C14.0941 32.7273 10.3481 31.1757 7.58625 28.4138C4.82435 25.6519 3.27273 21.9059 3.27273 18ZM18 0C8.05909 0 0 8.05909 0 18C0 27.9409 8.05909 36 18 36C27.9409 36 36 27.9409 36 18C36 8.05909 27.9409 0 18 0ZM22.4296 10.9751C22.7277 10.6665 22.8926 10.2531 22.8889 9.82407C22.8852 9.39502 22.7131 8.9846 22.4097 8.68121C22.1063 8.37781 21.6959 8.20572 21.2668 8.20199C20.8378 8.19826 20.4244 8.3632 20.1158 8.66127L11.934 16.8431C11.6272 17.15 11.4549 17.5661 11.4549 18C11.4549 18.4339 11.6272 18.85 11.934 19.1569L20.1158 27.3387C20.4244 27.6368 20.8378 27.8017 21.2668 27.798C21.6959 27.7943 22.1063 27.6222 22.4097 27.3188C22.7131 27.0154 22.8852 26.605 22.8889 26.1759C22.8926 25.7469 22.7277 25.3335 22.4296 25.0249L15.4047 18L22.4296 10.9751Z" fill="#C4C4C4"/>
</svg>
