<svg width="36" height="36" viewBox="0 0 36 36" fill="none" xmlns="http://www.w3.org/2000/svg">
<path fill-rule="evenodd" clip-rule="evenodd" d="M32.7273 18C32.7273 19.934 32.3463 21.8491 31.6062 23.6359C30.8661 25.4227 29.7813 27.0462 28.4138 28.4138C27.0462 29.7813 25.4227 30.8661 23.6359 31.6062C21.8491 32.3463 19.934 32.7273 18 32.7273C16.066 32.7273 14.1509 32.3463 12.3641 31.6062C10.5773 30.8661 8.9538 29.7813 7.58625 28.4138C6.21869 27.0462 5.13389 25.4227 4.39377 23.6359C3.65366 21.8491 3.27273 19.934 3.27273 18C3.27273 14.0941 4.82435 10.3481 7.58624 7.58625C10.3481 4.82435 14.0941 3.27273 18 3.27273C21.9059 3.27273 25.6519 4.82435 28.4138 7.58625C31.1757 10.3481 32.7273 14.0941 32.7273 18ZM18 36C27.9409 36 36 27.9409 36 18C36 8.05909 27.9409 7.04548e-07 18 1.57361e-06C8.05909 2.44267e-06 -2.44267e-06 8.05909 -1.57361e-06 18C-7.04548e-07 27.9409 8.05909 36 18 36ZM13.5704 25.0249C13.2723 25.3335 13.1074 25.7469 13.1111 26.1759C13.1148 26.605 13.2869 27.0154 13.5903 27.3188C13.8937 27.6222 14.3041 27.7943 14.7332 27.798C15.1622 27.8017 15.5756 27.6368 15.8842 27.3387L24.066 19.1569C24.3728 18.85 24.5451 18.4339 24.5451 18C24.5451 17.5661 24.3728 17.15 24.066 16.8431L15.8842 8.66127C15.5756 8.3632 15.1622 8.19826 14.7332 8.20199C14.3041 8.20572 13.8937 8.37781 13.5903 8.68121C13.2869 8.9846 13.1148 9.39502 13.1111 9.82407C13.1073 10.2531 13.2723 10.6665 13.5704 10.9751L20.5953 18L13.5704 25.0249Z" fill="#C4C4C4"/>
</svg>
