<svg width="17" height="17" viewBox="0 0 17 17" fill="none" xmlns="http://www.w3.org/2000/svg">
<path d="M5.04715 0H2.69745C0.867504 0 -0.444591 1.73228 0.141131 3.4682C1.31183 6.93771 2.88613 10.0114 4.93737 12.0626C6.9886 14.1139 10.0623 15.6882 13.5318 16.8588C15.2677 17.4446 17 16.1325 17 14.3025V11.9525C17 11.2798 16.6354 10.66 16.0475 10.3331L14.0004 9.19499L13.852 9.12093C13.3489 8.8975 12.7689 8.90842 12.2714 9.1572L10.3989 10.0924L10.3545 10.0785C10.2805 10.0544 10.1973 10.0254 10.1064 9.99109C9.64087 9.81522 9.17449 9.56965 8.7426 9.24585C8.55521 9.10537 8.3781 8.95265 8.2127 8.78726C8.04526 8.61982 7.89068 8.44024 7.74851 8.25002C7.42583 7.81827 7.18043 7.35194 7.00408 6.8864L6.91626 6.63823L6.90169 6.59242L7.83753 4.7227C8.11098 4.17591 8.09703 3.52936 7.80028 2.9948L6.66709 0.953523C6.34033 0.365017 5.72021 0 5.04715 0ZM2.69745 1.85282H5.04717L6.18034 3.89404L5.08863 6.07752C4.99725 6.26028 4.96886 6.46812 5.00787 6.6687C5.14469 7.37212 5.52027 8.36359 6.2644 9.35923C6.45863 9.61912 6.67106 9.86592 6.90256 10.0974C7.13132 10.3262 7.37489 10.5362 7.63118 10.7283C8.62895 11.4764 9.62285 11.8518 10.3282 11.9871C10.5281 12.0254 10.735 11.9969 10.917 11.9059L13.1001 10.8144L15.1472 11.9525V14.3025C15.1472 14.8885 14.6357 15.2759 14.1242 15.1033C10.9023 14.0162 8.05055 12.5555 6.24752 10.7525C4.44448 8.94944 2.98385 6.0977 1.89671 2.87583C1.7241 2.36426 2.11149 1.85282 2.69745 1.85282Z" fill="#F66359"/>
</svg>
