<svg width="17" height="17" viewBox="0 0 17 17" fill="none" xmlns="http://www.w3.org/2000/svg">
<path d="M3.9787 2.75358C4.37829 2.60373 4.8237 2.80619 4.97355 3.20578L5.97508 5.87652L13.6492 3.13576C14.0511 2.99222 14.4933 3.20167 14.6368 3.60357C14.7804 4.00548 14.5709 4.44764 14.169 4.59118L3.35083 8.45481C2.94892 8.59835 2.50676 8.3889 2.36322 7.987C2.21968 7.5851 2.42913 7.14293 2.83103 6.99939L4.51948 6.39638L3.52649 3.74843C3.37665 3.34883 3.57911 2.90343 3.9787 2.75358Z" fill="#F66359"/>
<path d="M14.6368 6.30812C14.7804 6.71002 14.5709 7.15219 14.169 7.29572L13.8309 7.41646C13.429 7.56 12.9869 7.35055 12.8433 6.94865C12.6998 6.54675 12.9092 6.10458 13.3111 5.96104L13.6492 5.8403C14.0511 5.69677 14.4933 5.90621 14.6368 6.30812Z" fill="#F66359"/>
<path d="M11.8025 8.14089C12.2044 7.99736 12.4139 7.55519 12.2703 7.15329C12.1268 6.75139 11.6846 6.54194 11.2827 6.68547L10.6066 6.92695C10.2047 7.07049 9.99525 7.51265 10.1388 7.91456C10.2823 8.31646 10.7245 8.52591 11.1264 8.38237L11.8025 8.14089Z" fill="#F66359"/>
<path d="M9.5658 8.1192C9.70934 8.5211 9.49989 8.96327 9.09799 9.1068L8.42185 9.34828C8.01995 9.49182 7.57778 9.28237 7.43424 8.88047C7.29071 8.47856 7.50015 8.0364 7.90206 7.89286L8.57819 7.65138C8.9801 7.50785 9.42226 7.71729 9.5658 8.1192Z" fill="#F66359"/>
<path d="M6.39344 10.0727C6.79534 9.92918 7.00479 9.48701 6.86125 9.08511C6.71772 8.6832 6.27555 8.47376 5.87365 8.61729L5.19751 8.85877C4.79561 9.00231 4.58616 9.44447 4.7297 9.84638C4.87323 10.2483 5.3154 10.4577 5.7173 10.3142L6.39344 10.0727Z" fill="#F66359"/>
<path d="M4.15671 10.051C4.30025 10.4529 4.0908 10.8951 3.6889 11.0386L3.35083 11.1594C2.94892 11.3029 2.50676 11.0934 2.36322 10.6915C2.21968 10.2896 2.42913 9.84748 2.83103 9.70394L3.1691 9.5832C3.57101 9.43966 4.01317 9.64911 4.15671 10.051Z" fill="#F66359"/>
<path d="M14.6368 9.01266C14.7804 9.41457 14.5709 9.85673 14.169 10.0003L13.2898 10.3143L14.2463 12.8649C14.3961 13.2645 14.1937 13.7099 13.7941 13.8597C13.3945 14.0096 12.9491 13.8071 12.7992 13.4075L11.8342 10.8341L3.35083 13.8639C2.94892 14.0074 2.50676 13.798 2.36322 13.3961C2.21968 12.9942 2.42913 12.552 2.83103 12.4085L13.6492 8.54485C14.0511 8.40131 14.4933 8.61076 14.6368 9.01266Z" fill="#F66359"/>
<path fill-rule="evenodd" clip-rule="evenodd" d="M1.54545 0C0.691923 0 0 0.691923 0 1.54545V15.4545C0 16.3081 0.691923 17 1.54545 17H15.4545C16.3081 17 17 16.3081 17 15.4545V1.54545C17 0.691923 16.3081 0 15.4545 0H1.54545ZM1.54545 1.54545H15.4545V15.4545H1.54545V1.54545Z" fill="#F66359"/>
</svg>
