<svg width="50" height="34" viewBox="0 0 50 34" fill="none" xmlns="http://www.w3.org/2000/svg">
<path d="M49.3875 0.658996C49.4236 0.528338 49.407 0.388725 49.341 0.270206C49.2751 0.151688 49.1654 0.0637282 49.0352 0.025231C48.964 0.0025663 48.8883 -0.00292114 48.8145 0.00921864C48.7407 0.0213584 48.6707 0.0507759 48.6105 0.0950777L28.127 14.2008L42.8195 26.2605L49.3875 0.658996Z" fill="#F66359"/>
<path d="M1.00582 32.9655C0.901353 33.046 0.829625 33.1618 0.803914 33.2911C0.778215 33.4204 0.800251 33.5547 0.865964 33.6691C0.91336 33.7365 0.97671 33.7911 1.05036 33.8281C1.12402 33.8651 1.2057 33.8834 1.28812 33.8812H13.2975L11.2489 25.9112L1.00582 32.9655Z" fill="#F66359"/>
<path d="M16.1208 33.8815L7.77875 2.28117C7.74273 2.15017 7.75974 2.01025 7.82613 1.89168C7.89252 1.7731 8.00295 1.68536 8.13357 1.64741C8.20399 1.62178 8.27986 1.61466 8.35383 1.62697C8.42779 1.63917 8.49734 1.67034 8.55571 1.71732L46.5548 32.9658C46.6509 33.0539 46.7114 33.1741 46.7248 33.3038C46.7381 33.4334 46.7035 33.5635 46.6273 33.6693C46.5943 33.7341 46.5438 33.7883 46.4816 33.8258C46.4194 33.8633 46.3478 33.8826 46.2751 33.8815H16.1208Z" fill="#383D50"/>
</svg>
