<svg width="50" height="34" viewBox="0 0 50 34" fill="none" xmlns="http://www.w3.org/2000/svg">
<path d="M49.3875 0.656066C49.4236 0.525408 49.407 0.385795 49.341 0.267277C49.2751 0.148759 49.1654 0.0607985 49.0352 0.0223013C48.964 -0.00036339 48.8883 -0.00585083 48.8145 0.00628895C48.7407 0.0184287 48.6707 0.0478463 48.6105 0.092148L28.127 14.1979L42.8195 26.2576L49.3875 0.656066Z" fill="#F66359"/>
<path d="M1.00582 32.9626C0.901353 33.0431 0.829625 33.1589 0.803914 33.2882C0.778215 33.4175 0.800251 33.5517 0.865964 33.6661C0.91336 33.7336 0.97671 33.7882 1.05036 33.8251C1.12402 33.8622 1.2057 33.8805 1.28812 33.8782H13.2975L11.2489 25.9083L1.00582 32.9626Z" fill="#F66359"/>
<path d="M16.1208 33.8781L7.77875 2.27775C7.74273 2.14675 7.75974 2.00683 7.82613 1.88826C7.89252 1.76968 8.00295 1.68194 8.13357 1.644C8.20399 1.61836 8.27986 1.61125 8.35383 1.62356C8.42779 1.63575 8.49734 1.66692 8.55571 1.7139L46.5548 32.9624C46.6509 33.0504 46.7114 33.1707 46.7248 33.3004C46.7381 33.43 46.7035 33.5601 46.6273 33.6659C46.5943 33.7307 46.5438 33.7849 46.4816 33.8224C46.4194 33.8599 46.3478 33.8792 46.2751 33.8781H16.1208Z" fill="white"/>
</svg>
