<svg width="1110" height="8" viewBox="0 0 1110 8" fill="none" xmlns="http://www.w3.org/2000/svg">
<path d="M0 0L18.8457 1.35419e-05L11.3238 7.99999H0V0Z" fill="#F66359"/>
<path d="M560.084 0H579.178L571.656 7.99998H552.562L560.084 0Z" fill="#F66359"/>
<path d="M279.918 0H299.012L291.49 7.99998H272.396L279.918 0Z" fill="#F66359"/>
<path d="M840.25 0H859.344L851.822 7.99998H832.729L840.25 0Z" fill="#F66359"/>
<path d="M139.834 0H158.928L151.406 7.99998H132.312L139.834 0Z" fill="#F66359"/>
<path d="M700.166 0H719.26L711.738 7.99998H692.645L700.166 0Z" fill="#F66359"/>
<path d="M420 0H439.094L431.572 7.99998H412.479L420 0Z" fill="#F66359"/>
<path d="M980.332 0H999.426L991.904 7.99998H972.811L980.332 0Z" fill="#F66359"/>
<path d="M69.7933 0H88.8873L81.3654 7.99998H62.2715L69.7933 0Z" fill="#F66359"/>
<path d="M630.125 0H649.219L641.697 7.99998H622.604L630.125 0Z" fill="#F66359"/>
<path d="M349.959 0H369.053L361.531 7.99998H342.438L349.959 0Z" fill="#F66359"/>
<path d="M910.291 0H929.385L921.863 7.99998H902.77L910.291 0Z" fill="#F66359"/>
<path d="M209.877 0H228.971L221.449 7.99998H202.355L209.877 0Z" fill="#F66359"/>
<path d="M770.209 0H789.303L781.781 7.99998H762.688L770.209 0Z" fill="#F66359"/>
<path d="M490.043 0H509.137L501.615 7.99998H482.521L490.043 0Z" fill="#F66359"/>
<path d="M1050.38 0H1069.47L1061.95 7.99998H1042.85L1050.38 0Z" fill="#F66359"/>
<path d="M34.7719 0H53.8658L46.3439 7.99998H27.25L34.7719 0Z" fill="#F66359"/>
<path d="M595.104 0H614.198L606.676 7.99998H587.582L595.104 0Z" fill="#F66359"/>
<path d="M314.938 0H334.032L326.51 7.99998H307.416L314.938 0Z" fill="#F66359"/>
<path d="M875.272 0H894.366L886.844 7.99998H867.75L875.272 0Z" fill="#F66359"/>
<path d="M174.856 0H193.95L186.428 7.99998H167.334L174.856 0Z" fill="#F66359"/>
<path d="M735.188 0H754.282L746.76 7.99998H727.666L735.188 0Z" fill="#F66359"/>
<path d="M455.022 0H474.116L466.594 7.99998H447.5L455.022 0Z" fill="#F66359"/>
<path d="M1015.35 0H1034.45L1026.93 7.99998H1007.83L1015.35 0Z" fill="#F66359"/>
<path d="M104.815 0H123.909L116.387 7.99998H97.293L104.815 0Z" fill="#F66359"/>
<path d="M665.147 0H684.241L676.719 7.99998H657.625L665.147 0Z" fill="#F66359"/>
<path d="M384.981 0H404.075L396.553 7.99998H377.459L384.981 0Z" fill="#F66359"/>
<path d="M945.313 0H964.407L956.885 7.99998H937.791L945.313 0Z" fill="#F66359"/>
<path d="M244.897 0H263.991L256.469 7.99998H237.375L244.897 0Z" fill="#F66359"/>
<path d="M805.229 0H824.323L816.801 7.99998H797.707L805.229 0Z" fill="#F66359"/>
<path d="M525.063 0H544.157L536.635 7.99998H517.541L525.063 0Z" fill="#F66359"/>
<path d="M1085.39 0H1104.49L1096.97 7.99998H1077.87L1085.39 0Z" fill="#F66359"/>
<path d="M17.2621 0H36.356L28.8342 7.99998H9.74023L17.2621 0Z" fill="white"/>
<path d="M577.594 0H596.688L589.166 7.99998H570.072L577.594 0Z" fill="white"/>
<path d="M297.428 0H316.522L309 7.99998H289.906L297.428 0Z" fill="white"/>
<path d="M857.76 0H876.854L869.332 7.99998H850.238L857.76 0Z" fill="white"/>
<path d="M157.346 0H176.44L168.918 7.99998H149.824L157.346 0Z" fill="white"/>
<path d="M717.678 0H736.772L729.25 7.99998H710.156L717.678 0Z" fill="white"/>
<path d="M437.512 0H456.606L449.084 7.99998H429.99L437.512 0Z" fill="white"/>
<path d="M997.844 0H1016.94L1009.42 7.99998H990.322L997.844 0Z" fill="white"/>
<path d="M87.3031 0H106.397L98.8752 7.99998H79.7812L87.3031 0Z" fill="white"/>
<path d="M647.635 0H666.729L659.207 7.99998H640.113L647.635 0Z" fill="white"/>
<path d="M367.469 0H386.563L379.041 7.99998H359.947L367.469 0Z" fill="white"/>
<path d="M927.803 0H946.897L939.375 7.99998H920.281L927.803 0Z" fill="white"/>
<path d="M227.387 0H246.481L238.959 7.99998H219.865L227.387 0Z" fill="white"/>
<path d="M787.719 0H806.813L799.291 7.99998H780.197L787.719 0Z" fill="white"/>
<path d="M507.553 0H526.647L519.125 7.99998H500.031L507.553 0Z" fill="white"/>
<path d="M1067.89 0H1086.98L1079.46 7.99998H1060.36L1067.89 0Z" fill="white"/>
<path d="M52.2836 0H71.3775L63.8556 7.99998H44.7617L52.2836 0Z" fill="white"/>
<path d="M612.616 0H631.71L624.188 7.99998H605.094L612.616 0Z" fill="white"/>
<path d="M332.45 0H351.544L344.022 7.99998H324.928L332.45 0Z" fill="white"/>
<path d="M892.782 0H911.876L904.354 7.99998H885.26L892.782 0Z" fill="white"/>
<path d="M192.366 0H211.46L203.938 7.99998H184.844L192.366 0Z" fill="white"/>
<path d="M752.698 0H771.792L764.27 7.99998H745.176L752.698 0Z" fill="white"/>
<path d="M472.532 0H491.626L484.104 7.99998H465.01L472.532 0Z" fill="white"/>
<path d="M1032.86 0H1051.96L1044.44 7.99998H1025.34L1032.86 0Z" fill="white"/>
<path d="M122.325 0H141.419L133.897 7.99998H114.803L122.325 0Z" fill="white"/>
<path d="M682.657 0H701.751L694.229 7.99998H675.135L682.657 0Z" fill="white"/>
<path d="M402.491 0H421.585L414.063 7.99998H394.969L402.491 0Z" fill="white"/>
<path d="M962.823 0H981.917L974.395 7.99998H955.301L962.823 0Z" fill="white"/>
<path d="M262.407 0H281.501L273.979 7.99998H254.885L262.407 0Z" fill="white"/>
<path d="M822.741 0H841.835L834.313 7.99998H815.219L822.741 0Z" fill="white"/>
<path d="M542.575 0H561.669L554.147 7.99998H535.053L542.575 0Z" fill="white"/>
<path d="M1102.91 0H1110V7.99998H1095.38L1102.91 0Z" fill="white"/>
</svg>
