<svg width="44" height="44" viewBox="0 0 44 44" fill="none" xmlns="http://www.w3.org/2000/svg">
<g filter="url(#filter0_d)">
<path fill-rule="evenodd" clip-rule="evenodd" d="M7.27273 18C7.27273 16.066 7.65366 14.1509 8.39377 12.3641C9.13389 10.5773 10.2187 8.9538 11.5862 7.58625C12.9538 6.21869 14.5773 5.13389 16.3641 4.39377C18.1509 3.65366 20.066 3.27273 22 3.27273C23.934 3.27273 25.8491 3.65366 27.6359 4.39377C29.4227 5.13389 31.0462 6.21869 32.4138 7.58625C33.7813 8.9538 34.8661 10.5773 35.6062 12.3641C36.3463 14.1509 36.7273 16.066 36.7273 18C36.7273 21.9059 35.1757 25.6519 32.4138 28.4138C29.6519 31.1757 25.9059 32.7273 22 32.7273C18.0941 32.7273 14.3481 31.1757 11.5862 28.4138C8.82435 25.6519 7.27273 21.9059 7.27273 18ZM22 0C12.0591 0 4 8.05909 4 18C4 27.9409 12.0591 36 22 36C31.9409 36 40 27.9409 40 18C40 8.05909 31.9409 0 22 0ZM26.4296 10.9751C26.7277 10.6665 26.8926 10.2531 26.8889 9.82407C26.8852 9.39502 26.7131 8.9846 26.4097 8.68121C26.1063 8.37781 25.6959 8.20572 25.2668 8.20199C24.8378 8.19826 24.4244 8.3632 24.1158 8.66127L15.934 16.8431C15.6272 17.15 15.4549 17.5661 15.4549 18C15.4549 18.4339 15.6272 18.85 15.934 19.1569L24.1158 27.3387C24.4244 27.6368 24.8378 27.8017 25.2668 27.798C25.6959 27.7943 26.1063 27.6222 26.4097 27.3188C26.7131 27.0154 26.8852 26.605 26.8889 26.1759C26.8926 25.7469 26.7277 25.3335 26.4296 25.0249L19.4047 18L26.4296 10.9751Z" fill="white"/>
</g>
<defs>
<filter id="filter0_d" x="0" y="0" width="44" height="44" filterUnits="userSpaceOnUse" color-interpolation-filters="sRGB">
<feFlood flood-opacity="0" result="BackgroundImageFix"/>
<feColorMatrix in="SourceAlpha" type="matrix" values="0 0 0 0 0 0 0 0 0 0 0 0 0 0 0 0 0 0 127 0"/>
<feOffset dy="4"/>
<feGaussianBlur stdDeviation="2"/>
<feColorMatrix type="matrix" values="0 0 0 0 0 0 0 0 0 0 0 0 0 0 0 0 0 0 0.15 0"/>
<feBlend mode="normal" in2="BackgroundImageFix" result="effect1_dropShadow"/>
<feBlend mode="normal" in="SourceGraphic" in2="effect1_dropShadow" result="shape"/>
</filter>
</defs>
</svg>
