<svg width="44" height="44" viewBox="0 0 44 44" fill="none" xmlns="http://www.w3.org/2000/svg">
<g filter="url(#filter0_d)">
<path fill-rule="evenodd" clip-rule="evenodd" d="M36.7273 18C36.7273 19.934 36.3463 21.8491 35.6062 23.6359C34.8661 25.4227 33.7813 27.0462 32.4138 28.4138C31.0462 29.7813 29.4227 30.8661 27.6359 31.6062C25.8491 32.3463 23.934 32.7273 22 32.7273C20.066 32.7273 18.1509 32.3463 16.3641 31.6062C14.5773 30.8661 12.9538 29.7813 11.5862 28.4138C10.2187 27.0462 9.13389 25.4227 8.39377 23.6359C7.65366 21.8491 7.27273 19.934 7.27273 18C7.27273 14.0941 8.82435 10.3481 11.5862 7.58625C14.3481 4.82435 18.0941 3.27273 22 3.27273C25.9059 3.27273 29.6519 4.82435 32.4138 7.58625C35.1757 10.3481 36.7273 14.0941 36.7273 18ZM22 36C31.9409 36 40 27.9409 40 18C40 8.05909 31.9409 7.04548e-07 22 1.57361e-06C12.0591 2.44267e-06 4 8.05909 4 18C4 27.9409 12.0591 36 22 36ZM17.5704 25.0249C17.2723 25.3335 17.1074 25.7469 17.1111 26.1759C17.1148 26.605 17.2869 27.0154 17.5903 27.3188C17.8937 27.6222 18.3041 27.7943 18.7332 27.798C19.1622 27.8017 19.5756 27.6368 19.8842 27.3387L28.066 19.1569C28.3728 18.85 28.5451 18.4339 28.5451 18C28.5451 17.5661 28.3728 17.15 28.066 16.8431L19.8842 8.66127C19.5756 8.3632 19.1622 8.19826 18.7332 8.20199C18.3041 8.20572 17.8937 8.37781 17.5903 8.68121C17.2869 8.9846 17.1148 9.39502 17.1111 9.82407C17.1073 10.2531 17.2723 10.6665 17.5704 10.9751L24.5953 18L17.5704 25.0249Z" fill="white"/>
</g>
<defs>
<filter id="filter0_d" x="0" y="0" width="44" height="44" filterUnits="userSpaceOnUse" color-interpolation-filters="sRGB">
<feFlood flood-opacity="0" result="BackgroundImageFix"/>
<feColorMatrix in="SourceAlpha" type="matrix" values="0 0 0 0 0 0 0 0 0 0 0 0 0 0 0 0 0 0 127 0"/>
<feOffset dy="4"/>
<feGaussianBlur stdDeviation="2"/>
<feColorMatrix type="matrix" values="0 0 0 0 0 0 0 0 0 0 0 0 0 0 0 0 0 0 0.15 0"/>
<feBlend mode="normal" in2="BackgroundImageFix" result="effect1_dropShadow"/>
<feBlend mode="normal" in="SourceGraphic" in2="effect1_dropShadow" result="shape"/>
</filter>
</defs>
</svg>
