<svg width="60" height="39" viewBox="0 0 60 39" fill="none" xmlns="http://www.w3.org/2000/svg">
<path d="M59.9569 17.638C59.9419 17.5782 59.9353 17.5174 59.9081 17.4631C59.9044 17.4539 59.9053 17.4438 59.9006 17.4355L55.2122 8.23266C55.1916 8.19218 55.155 8.1655 55.1297 8.12869C55.0903 8.07349 55.0556 8.01828 55.005 7.97227C54.96 7.93271 54.9084 7.90695 54.8587 7.87566C54.8072 7.84438 54.7603 7.81033 54.7022 7.78917C54.6384 7.76525 54.5719 7.75973 54.5044 7.75053C54.4594 7.74409 54.42 7.72477 54.3731 7.72477H43.1287C42.6103 7.72477 42.1912 8.13697 42.1912 8.64487V10.0508C41.1956 9.17945 39.8897 8.64487 38.4544 8.64487C38.4534 8.64487 38.4534 8.64487 38.4534 8.64487C38.1881 8.64487 37.9256 8.66971 37.6631 8.70652L38.415 5.95173C38.4488 5.82935 38.4553 5.70514 38.4375 5.58736C38.3869 5.2322 38.1272 4.92397 37.7522 4.8246L20.6081 0.316093C20.5903 0.310572 20.5734 0.306893 20.5547 0.302292L20.5369 0.297691C20.5088 0.290331 20.4806 0.297691 20.4525 0.293091C20.3747 0.280209 20.2978 0.260888 20.2134 0.270089L9.44812 1.18099L5.07938 0.031781C4.95469 -0.00134268 4.82906 -0.00778305 4.70812 0.00877881C4.34625 0.0584644 4.03125 0.314253 3.93094 0.682295L0.046875 14.908C0.035625 14.9476 0.045 14.9871 0.039375 15.0267C0.03375 15.0672 0.015 15.1031 0.015 15.1454V19.6134C0.013125 19.6392 0 19.6603 0 19.6861C0 19.7119 0.013125 19.7321 0.015 19.7579V23.2957C0.013125 23.3187 0 23.3408 0 23.3656C0 23.3904 0.013125 23.4125 0.015 23.4364V26.9163C0.015 26.9273 0.020625 26.9356 0.020625 26.9448C0.016875 26.9807 0 27.0101 0 27.046C0 27.5548 0.419063 27.9661 0.9375 27.9661H5.61656V31.6392C5.61656 32.148 6.03562 32.5593 6.55406 32.5593H7.50656C7.50656 36.11 10.4513 39 14.0691 39C17.6691 39 20.5997 36.1394 20.6287 32.6126C20.6578 36.1394 23.5884 39 27.1884 39C30.8062 39 33.7509 36.11 33.7509 32.5593H42.1912C42.1912 36.11 45.1359 39 48.7537 39C52.3716 39 55.3162 36.11 55.3162 32.5593C55.3162 31.9216 55.2188 31.3052 55.0406 30.7227H59.0625C59.5809 30.7227 60 30.3115 60 29.8026V17.8468C60 17.8367 59.9944 17.8284 59.9944 17.8192C59.9925 17.7576 59.9719 17.6987 59.9569 17.638ZM48.7537 26.1186C46.9191 26.1186 45.2588 26.8648 44.0672 28.059V21.5898C44.0681 21.5677 44.0803 21.5475 44.0803 21.5254C44.0803 21.5033 44.0681 21.4831 44.0672 21.461L44.0662 14.4277C44.0709 14.3403 44.0803 14.2547 44.0803 14.1664C44.0803 14.0781 44.0709 13.9925 44.0662 13.9042V9.56405H53.7947L58.125 18.064V26.1204H48.7903C48.7772 26.1204 48.7659 26.1186 48.7537 26.1186ZM20.9025 30.7191H20.355C20.0334 29.6628 19.4428 28.7188 18.66 27.9661H22.5966C21.8147 28.7197 21.2241 29.6628 20.9025 30.7191ZM5.49938 2.04681L8.21531 2.76173L4.81687 15.2107L2.1 14.4958L5.49938 2.04681ZM38.4534 19.6916C38.7741 19.6916 39.0853 19.6594 39.39 19.6088V20.6062H37.515V19.6061C37.8225 19.6557 38.1347 19.6916 38.4534 19.6916ZM42.1912 20.6053H41.265V18.9445C41.5969 18.755 41.9072 18.5332 42.1912 18.2839V20.6053ZM35.64 20.6053H34.4137L34.9856 18.5084C35.1947 18.6685 35.4113 18.8157 35.6391 18.9463V20.6053H35.64ZM15.0066 23.6048L24.5728 26.1204H15.0066V23.6048ZM13.1316 26.1204H6.5775V18.213L13.1316 22.7142V26.1204ZM4.7025 17.085V18.766H1.89V16.3461L4.7025 17.085ZM4.7025 20.6053V22.4455H1.89V20.6053H4.7025ZM31.0237 25.9124L15.6197 21.8622L20.9569 2.31272L36.3609 6.36301L31.0237 25.9124ZM13.9125 21.0055L6.55594 15.9523L10.0988 2.97243L19.0425 2.21519L13.9125 21.0055ZM1.89 24.2857H4.7025V26.1259H1.89V24.2857ZM32.9081 26.1204L33.9113 22.4455H42.1922V26.1204H32.9081ZM38.4544 10.4842C40.4766 10.4842 42.1191 12.0667 42.1912 14.0348V14.2971C42.1191 16.267 40.4766 17.8505 38.4534 17.8505C37.3106 17.8505 36.2494 17.3435 35.5397 16.4823L37.1025 10.7574C37.5328 10.5918 37.9819 10.4842 38.4544 10.4842ZM7.49156 30.7191V27.9661H9.47719C8.69438 28.7188 8.10375 29.6628 7.78219 30.7191H7.49156ZM14.0691 37.1598C11.4844 37.1598 9.38156 35.096 9.38156 32.5593C9.38156 30.0474 11.4459 28.0057 13.9969 27.9661H14.1412C16.6922 28.0057 18.7566 30.0474 18.7566 32.5593C18.7566 35.096 16.6537 37.1598 14.0691 37.1598ZM27.1884 37.1598C24.6038 37.1598 22.5009 35.096 22.5009 32.5593C22.5009 30.0474 24.5653 28.0057 27.1162 27.9661H27.2606C29.8116 28.0057 31.8759 30.0474 31.8759 32.5593C31.8759 35.096 29.7731 37.1598 27.1884 37.1598ZM33.4744 30.7191C33.1528 29.6628 32.5622 28.7188 31.7794 27.9661H36.57C36.5803 27.9661 36.5878 27.9606 36.5972 27.9606H42.1912V30.7191H33.4744ZM48.7537 37.1598C46.1691 37.1598 44.0662 35.096 44.0662 32.5593C44.0662 30.0244 46.1663 27.9624 48.7472 27.9597C48.75 27.9597 48.7519 27.9606 48.7537 27.9606H48.7725C51.3487 27.9707 53.4412 30.029 53.4412 32.5593C53.4412 35.096 51.3384 37.1598 48.7537 37.1598ZM53.34 27.9606H58.125V28.8825H54.1341C53.8978 28.5513 53.6325 28.2431 53.34 27.9606Z" fill="#F66359"/>
<path d="M55.1391 17.2883L52.3997 11.9149C52.2403 11.603 51.9159 11.4061 51.5606 11.4061H46.8787C46.3603 11.4061 45.9412 11.8183 45.9412 12.3262V17.8477C45.9412 18.3556 46.3603 18.7678 46.8787 18.7678H54.3947C54.9131 18.7678 55.3322 18.3556 55.3322 17.8477C55.3322 17.637 55.2609 17.4429 55.1391 17.2883ZM47.8172 16.9276V13.2463H50.9822L52.86 16.9276H47.8172Z" fill="#F66359"/>
<path d="M14.0691 29.799C12.5184 29.799 11.2566 31.0374 11.2566 32.5593C11.2566 34.0811 12.5184 35.3196 14.0691 35.3196C15.6197 35.3196 16.8816 34.0811 16.8816 32.5593C16.8816 31.0374 15.6197 29.799 14.0691 29.799ZM14.0691 33.4794C13.5516 33.4794 13.1316 33.0672 13.1316 32.5593C13.1316 32.0514 13.5516 31.6392 14.0691 31.6392C14.5866 31.6392 15.0066 32.0514 15.0066 32.5593C15.0066 33.0672 14.5866 33.4794 14.0691 33.4794Z" fill="#F66359"/>
<path d="M27.1884 29.799C25.6378 29.799 24.3759 31.0374 24.3759 32.5593C24.3759 34.0811 25.6378 35.3196 27.1884 35.3196C28.7391 35.3196 30.0009 34.0811 30.0009 32.5593C30.0009 31.0374 28.7391 29.799 27.1884 29.799ZM27.1884 33.4794C26.6709 33.4794 26.2509 33.0672 26.2509 32.5593C26.2509 32.0514 26.6709 31.6392 27.1884 31.6392C27.7059 31.6392 28.1259 32.0514 28.1259 32.5593C28.1259 33.0672 27.7059 33.4794 27.1884 33.4794Z" fill="#F66359"/>
<path d="M48.7509 29.799C47.2003 29.799 45.9384 31.0374 45.9384 32.5593C45.9384 34.0811 47.2003 35.3196 48.7509 35.3196C50.3016 35.3196 51.5634 34.0811 51.5634 32.5593C51.5634 31.0374 50.3016 29.799 48.7509 29.799ZM48.7509 33.4794C48.2334 33.4794 47.8134 33.0672 47.8134 32.5593C47.8134 32.0514 48.2334 31.6392 48.7509 31.6392C49.2684 31.6392 49.6884 32.0514 49.6884 32.5593C49.6884 33.0672 49.2684 33.4794 48.7509 33.4794Z" fill="#F66359"/>
<path d="M47.8125 19.6852H46.875C46.3566 19.6852 45.9375 20.0974 45.9375 20.6053C45.9375 21.1141 46.3566 21.5254 46.875 21.5254H47.8125C48.3309 21.5254 48.75 21.1141 48.75 20.6053C48.75 20.0974 48.3309 19.6852 47.8125 19.6852Z" fill="#F66359"/>
<path d="M40.3275 23.3656H35.64C35.1216 23.3656 34.7025 23.7769 34.7025 24.2857C34.7025 24.7945 35.1216 25.2058 35.64 25.2058H40.3275C40.8459 25.2058 41.265 24.7945 41.265 24.2857C41.265 23.7769 40.845 23.3656 40.3275 23.3656Z" fill="#F66359"/>
</svg>
