<svg width="50" height="50" viewBox="0 0 50 50" fill="none" xmlns="http://www.w3.org/2000/svg">
<path d="M40.2749 20.2009C31.6082 12.7597 20.0292 13.0006 16.6667 13.2506V1.66676C16.6667 0.746234 15.9205 0 15 0H12.5C11.4443 0.00434716 10.5052 0.67143 10.1533 1.66676H1.66669C0.746201 1.66676 0 2.41292 0 3.33345V31.668C0 32.5885 0.746201 33.3347 1.66669 33.3347H10.1534C10.5052 34.3301 11.4444 34.9971 12.5001 35.0015H15.0001C15.9205 35.0015 16.6667 34.2553 16.6667 33.3347V32.7272C16.8284 32.7822 16.9868 32.8314 17.1567 32.9039C18.1989 33.3378 19.0878 34.0732 19.7092 35.0156C20.6463 36.6383 21.0062 38.5307 20.73 40.3842C20.663 40.952 20.5566 41.5145 20.4117 42.0676C20.2367 42.731 20.1149 43.4073 20.0475 44.0902C19.9777 45.1529 20.3585 46.196 21.0967 46.9636C22.2602 48.2108 24.056 48.6425 25.6592 48.0603C26.3862 49.2196 27.6394 49.9446 29.0067 49.997C30.3741 50.0493 31.6789 49.4223 32.4925 48.3221C34.0067 49.4191 36.0584 49.4035 37.5558 48.2838C38.48 49.3789 39.8425 50.0075 41.2756 49.9998C42.7086 49.9921 44.0643 49.3489 44.9766 48.2438C45.2581 48.3047 45.5452 48.3355 45.8333 48.3355C46.9411 48.3331 48.0025 47.8906 48.784 47.1054C49.5655 46.3202 50.0029 45.2565 50 44.1487C49.7416 33.5773 46.4699 25.5203 40.2749 20.2009ZM1.66669 3.33345H9.99998V5.00021H4.16669C3.70648 5.00021 3.33338 5.37333 3.33338 5.83355C3.33338 6.29378 3.70648 6.6669 4.16669 6.6669H9.99998V31.668H1.66669V3.33345ZM12.5 33.3347C12.0398 33.3347 11.6667 32.9616 11.6667 32.5014V2.50011C11.6667 2.03988 12.0398 1.66676 12.5 1.66676H15V33.3348L12.5 33.3347ZM44.9274 46.4912C44.5348 46.3371 44.0889 46.5006 43.8891 46.872C43.3391 47.8016 42.3297 48.3614 41.2499 48.3354C40.0689 48.3759 38.9813 47.6963 38.4999 46.617C38.3886 46.331 38.1291 46.1292 37.8245 46.092C37.5199 46.0548 37.2193 46.188 37.0424 46.4387C36.5751 47.1043 35.8132 47.501 34.9999 47.5021C34.1942 47.5037 33.4382 47.1124 32.9741 46.4537C32.7929 46.2017 32.4867 46.0712 32.1795 46.1152C31.8723 46.1592 31.6149 46.3702 31.5116 46.6629C31.1667 47.6652 30.2227 48.3375 29.1627 48.3359C28.1027 48.3341 27.161 47.6589 26.8191 46.6555C26.7338 46.4123 26.5407 46.2222 26.2962 46.1407C26.0518 46.0592 25.7833 46.0954 25.5691 46.2388C25.1554 46.5198 24.6666 46.6697 24.1666 46.6688C23.4618 46.653 22.7941 46.3499 22.3182 45.8297C21.8974 45.4008 21.6762 44.8147 21.7091 44.2146C21.7706 43.6194 21.879 43.0301 22.0332 42.452C22.1971 41.8223 22.3163 41.1818 22.3899 40.5353C22.7052 38.3079 22.2523 36.0396 21.1057 34.1042C20.3041 32.8854 19.1571 31.9334 17.8116 31.3699C17.4407 31.2127 17.0577 31.0853 16.6666 30.9891V28.4056C20.6175 28.969 23.9585 31.6171 25.4091 35.3351C25.5269 35.6085 25.7818 35.7983 26.0776 35.833C26.3733 35.8676 26.6652 35.7417 26.843 35.503C27.0209 35.2641 27.0578 34.9485 26.9399 34.675C25.2324 30.3419 21.2895 27.2916 16.6666 26.7272V19.1552C19.6916 19.1702 30.8332 19.7994 37.6932 28.0356C37.8841 28.2643 38.1824 28.3738 38.4759 28.3228C38.7693 28.2719 39.0132 28.0682 39.1158 27.7886C39.2185 27.509 39.1641 27.1959 38.9732 26.9672C31.5774 18.0918 19.9608 17.4684 16.6666 17.4802V14.9292C19.6199 14.7167 30.9949 14.4226 39.1999 21.4753C45.0149 26.4739 48.0874 34.1158 48.3332 44.1687C48.328 44.9916 47.919 45.7594 47.2392 46.223C46.5594 46.6864 45.6953 46.7867 44.9274 46.4912Z" fill="#F66359"/>
<path d="M27.0425 37.5191C26.826 37.5647 26.6365 37.6945 26.5159 37.8799C26.3952 38.0653 26.3532 38.2911 26.3991 38.5074C26.5083 39.02 26.6 39.56 26.6741 40.1125C26.7415 40.5628 27.1579 40.8756 27.6091 40.8151C28.0604 40.7546 28.3795 40.343 28.3258 39.8908C28.2466 39.2975 28.1467 38.7158 28.0299 38.1624C27.9843 37.9461 27.8547 37.7568 27.6695 37.6361C27.4843 37.5156 27.2587 37.4735 27.0425 37.5191Z" fill="#F66359"/>
<path d="M22.6099 23.3418C22.3114 23.2953 22.011 23.414 21.825 23.6521C21.6389 23.8901 21.5964 24.2102 21.7136 24.4888C21.8308 24.7673 22.0896 24.9604 22.39 24.9936C22.5091 25.0103 34.3191 26.7261 36.6808 39.3226C36.755 39.7165 37.0991 40.0019 37.5 40.0018C37.5518 40.0017 37.6034 39.9967 37.6542 39.9868C37.8716 39.9463 38.064 39.8211 38.189 39.6387C38.3141 39.4563 38.3615 39.2316 38.3208 39.0142C35.7374 25.2511 22.7417 23.3585 22.6099 23.3418Z" fill="#F66359"/>
<path d="M44.1666 44.1686C44.6268 44.1686 44.9999 43.7955 44.9999 43.3352C44.9747 42.4469 44.8782 41.5622 44.7116 40.6893C44.6684 40.388 44.4643 40.1343 44.1793 40.0274C43.8943 39.9205 43.5737 39.9775 43.3431 40.1761C43.1124 40.3747 43.0083 40.6832 43.0716 40.981C43.2189 41.7579 43.3064 42.545 43.3332 43.3352C43.3333 43.7955 43.7063 44.1686 44.1666 44.1686Z" fill="#F66359"/>
</svg>
