<svg width="51" height="50" viewBox="0 0 51 50" fill="none" xmlns="http://www.w3.org/2000/svg">
<path d="M48.45 8.33334C49.8554 8.32654 50.9931 7.21125 51 5.83335C51 4.45265 49.8583 3.33335 48.45 3.33335H47.6V2.50004C47.6051 1.84029 47.337 1.20678 46.8571 0.744196C46.3836 0.264799 45.7308 -0.00397446 45.05 4.44309e-05C43.6417 4.44309e-05 42.5 1.11935 42.5 2.50004V3.33335H39.1001V2.50004C39.1051 1.84029 38.8371 1.20678 38.3572 0.744196C37.8836 0.264799 37.2308 -0.00397446 36.5501 4.44309e-05C35.1418 4.44309e-05 34.0001 1.11935 34.0001 2.50004V3.33335H30.6001V2.50004C30.6051 1.84029 30.3371 1.20678 29.8572 0.744196C29.3836 0.264799 28.7309 -0.00397446 28.0501 4.44309e-05C26.6418 4.44309e-05 25.5001 1.11935 25.5001 2.50004V3.33335H22.6874C22.6874 1.49237 21.1651 4.44309e-05 19.2874 4.44309e-05H4.25002C1.90398 0.00275103 0.00284439 1.86662 0 4.16665V45.8333C0.00284439 48.1333 1.90398 49.9972 4.25002 50H46.75C49.096 49.9972 50.9972 48.1333 51 45.8333V31.0917C51 29.2507 49.4777 27.7584 47.6 27.7584V25H48.45C49.8554 24.9932 50.9931 23.8779 51 22.5C51 21.1193 49.8583 20 48.45 20H47.6V16.6667H48.45C49.8554 16.6599 50.9931 15.5446 51 14.1667C51 12.786 49.8583 11.6667 48.45 11.6667H47.6V8.33343L48.45 8.33334ZM48.45 5.00004C48.9194 5.00004 49.3 5.37314 49.3 5.83335C49.3006 6.05808 49.2064 6.27313 49.0399 6.42749C48.8843 6.58201 48.6714 6.66829 48.45 6.66665H47.6V5.00004H48.45ZM44.2 2.50004C44.2 2.03984 44.5805 1.66674 45.05 1.66674C45.2789 1.66641 45.4979 1.75868 45.6551 1.92173C45.8138 2.07371 45.9022 2.28261 45.8999 2.50004V28.0967C45.6033 28.19 45.3236 28.2858 45.05 28.3809C44.7762 28.4759 44.4915 28.5734 44.2 28.6634V2.50004ZM37.4 8.33334V11.6666H35.6999V8.33334H37.4ZM42.5 8.33334V11.6666H39.1V8.33334H42.5ZM30.5999 23.3333V21.6666H42.5V23.3333H30.5999ZM42.5 13.3333V15H30.5999V13.3333H42.5ZM35.6999 20V16.6667H37.4V20H35.6999ZM30.5999 20V16.6667H33.9999V20H30.5999ZM39.1 16.6666H42.5V19.9999H39.1V16.6666ZM34 11.6666H30.6V8.33334H34V11.6666ZM30.5999 25H33.9999V27.7975C32.9738 27.5861 31.9271 27.4863 30.8787 27.5C30.7827 27.5 30.6934 27.5108 30.5999 27.5142L30.5999 25ZM35.6999 25H37.4V28.8234C36.89 28.6934 36.4378 28.5392 35.9796 28.3809L35.6999 28.2851V25ZM39.1 25H42.5V29.0408C41.842 29.1289 41.1784 29.1709 40.5143 29.1666C39.9831 29.1666 39.5198 29.1442 39.0999 29.1066L39.1 25ZM35.6999 2.50004C35.6999 2.03984 36.0805 1.66674 36.5499 1.66674C36.7789 1.66641 36.9978 1.75868 37.1551 1.92173C37.3137 2.07371 37.4021 2.28261 37.3999 2.50004V3.33335H35.6999L35.6999 2.50004ZM42.5 5.00004V6.66673H30.5999V5.00004H42.5ZM27.2 2.50004C27.2 2.03984 27.5805 1.66674 28.05 1.66674C28.2789 1.66641 28.4979 1.75868 28.6551 1.92173C28.8138 2.07371 28.9022 2.28261 28.8999 2.50004V27.7542C28.3164 27.9018 27.7475 28.1001 27.1999 28.3467L27.2 2.50004ZM22.6482 16.6666H25.5V19.9999H22.9355C22.9355 19.9058 22.95 19.8158 22.95 19.7199C22.9639 18.6945 22.8627 17.6705 22.6482 16.6666ZM25.5 11.6666H21.312C21.2729 11.2542 21.2499 10.7975 21.2499 10.2733C21.2458 9.62456 21.2884 8.9762 21.3774 8.33334H25.5V11.6666ZM25.5 13.3333V15H22.1518C22.1178 14.9067 22.0846 14.8117 22.0515 14.7192C21.8908 14.2725 21.7336 13.8325 21.6018 13.3333H25.5ZM22.6899 21.6666H25.5V23.3333H22.0838C22.3356 22.7964 22.5384 22.2386 22.6899 21.6666ZM21.2041 25H25.5V29.2092C23.5756 30.245 22.695 30.5875 21.2499 29.1667C19.8049 27.7459 20.1492 26.8841 21.2041 25ZM25.5 6.66665H21.76C21.8518 6.38 21.9504 6.10663 22.0499 5.83335C22.1494 5.55998 22.2437 5.29252 22.338 5.00004H25.5V6.66665ZM49.3 31.0917V45.8333C49.3 47.214 48.1583 48.3333 46.75 48.3333H4.25002C2.84171 48.3333 1.70002 47.214 1.70002 45.8333V4.16665C1.70002 2.78596 2.84171 1.66666 4.25002 1.66666H19.2865C19.8077 1.66723 20.2999 1.90164 20.6227 2.30279C20.9454 2.70402 21.0631 3.22795 20.9423 3.72498C20.8061 4.24998 20.6413 4.76735 20.4485 5.27497C19.8164 6.86743 19.5111 8.5666 19.5501 10.275C19.511 11.9833 19.8164 13.6825 20.4485 15.275C21.0148 16.6895 21.2873 18.2008 21.25 19.7199C21.1663 21.2721 20.6603 22.7741 19.7847 24.0699C18.7647 25.8866 17.6027 27.9466 20.0473 30.3449C22.4919 32.7432 24.5914 31.6066 26.4445 30.6033C27.7654 29.7449 29.2965 29.2488 30.8789 29.1666C32.429 29.1301 33.971 29.3974 35.4145 29.9524C37.0387 30.5724 38.7719 30.8718 40.5145 30.8332C42.2572 30.8718 43.9903 30.5721 45.6145 29.9515C46.1337 29.7625 46.6629 29.6009 47.1997 29.4674C47.7069 29.3492 48.2414 29.4649 48.6506 29.7814C49.0599 30.098 49.2991 30.5806 49.3 31.0917ZM48.45 21.6666C48.9194 21.6666 49.3 22.0397 49.3 22.4999C49.3006 22.7247 49.2064 22.9397 49.0399 23.0941C48.8843 23.2486 48.6714 23.3349 48.45 23.3333H47.6V21.6666L48.45 21.6666ZM48.45 13.3333C48.9194 13.3333 49.3 13.7064 49.3 14.1666C49.3006 14.3914 49.2064 14.6064 49.0399 14.7608C48.8843 14.9153 48.6714 15.0016 48.45 15H47.6V13.3333L48.45 13.3333Z" fill="#F66359"/>
<path d="M6.80002 40.8333C5.39171 40.8333 4.25002 41.9526 4.25002 43.3333C4.25002 44.714 5.39171 45.8333 6.80002 45.8333C8.20832 45.8333 9.35001 44.714 9.35001 43.3333C9.35001 41.9526 8.20832 40.8333 6.80002 40.8333ZM6.80002 44.1666C6.33061 44.1666 5.95005 43.7935 5.95005 43.3333C5.95005 42.8731 6.33061 42.5 6.80002 42.5C7.26942 42.5 7.64999 42.8731 7.64999 43.3333C7.64999 43.7936 7.26942 44.1666 6.80002 44.1666Z" fill="#F66359"/>
<path d="M15.3 4.16665C13.8917 4.16665 12.75 5.28595 12.75 6.66664C12.75 8.04734 13.8917 9.16664 15.3 9.16664C16.7083 9.16664 17.85 8.04734 17.85 6.66664C17.85 5.28595 16.7084 4.16665 15.3 4.16665ZM15.3 7.50003C14.8306 7.50003 14.45 7.12693 14.45 6.66673C14.45 6.20652 14.8306 5.83342 15.3 5.83342C15.7694 5.83342 16.1499 6.20652 16.1499 6.66673C16.15 7.12693 15.7695 7.50003 15.3 7.50003Z" fill="#F66359"/>
<path d="M7.64999 39.1666C8.11941 39.1666 8.49996 38.7935 8.49996 38.3333C8.49996 37.8731 8.11941 37.5 7.64999 37.5C7.18056 37.5 6.80002 37.8731 6.80002 38.3333C6.80002 38.7935 7.18056 39.1666 7.64999 39.1666Z" fill="#F66359"/>
<path d="M13.6 12.4999C14.0695 12.4999 14.45 12.1269 14.45 11.6666C14.45 11.2064 14.0695 10.8333 13.6 10.8333C13.1306 10.8333 12.7501 11.2064 12.7501 11.6666C12.7501 12.1269 13.1306 12.4999 13.6 12.4999Z" fill="#F66359"/>
<path d="M45.9 34.1666C46.3694 34.1666 46.75 33.7935 46.75 33.3333C46.75 32.8731 46.3694 32.5 45.9 32.5C45.4306 32.5 45.05 32.8731 45.05 33.3333C45.05 33.7935 45.4306 34.1666 45.9 34.1666Z" fill="#F66359"/>
<path fill-rule="evenodd" clip-rule="evenodd" d="M41.1272 41.0092C40.8551 41.2158 40.7371 41.5629 40.8282 41.8884C40.9193 42.2138 41.2015 42.4533 41.5431 42.4948C41.8847 42.5364 42.218 42.3721 42.3876 42.0784C42.5572 41.7848 42.5294 41.4199 42.3172 41.1542C42.0289 40.793 41.497 40.7282 41.1272 41.0092Z" fill="#F66359"/>
<path fill-rule="evenodd" clip-rule="evenodd" d="M39.4273 32.6759C39.1552 32.8825 39.0372 33.2296 39.1283 33.5551C39.2194 33.8805 39.5016 34.12 39.8431 34.1615C40.1847 34.2031 40.5181 34.0388 40.6877 33.7451C40.8572 33.4515 40.8295 33.0866 40.6173 32.8209C40.3288 32.4597 39.797 32.3949 39.4273 32.6759Z" fill="#F66359"/>
</svg>
