<svg width="38" height="50" viewBox="0 0 38 50" fill="none" xmlns="http://www.w3.org/2000/svg">
<path d="M30.2305 35.3735C29.83 35.3735 29.5054 35.7011 29.5054 36.1053V44.9458C29.5054 46.9257 27.9093 48.5363 25.9475 48.5363H5.00824C3.04635 48.5363 1.45032 46.9257 1.45032 44.9458V5.05427C1.45032 3.07435 3.04644 1.46365 5.00824 1.46365H25.9474C27.9092 1.46365 29.5053 3.07435 29.5053 5.05427V9.81933C29.5053 10.2235 29.8299 10.5512 30.2304 10.5512C30.631 10.5512 30.9556 10.2235 30.9556 9.81933V5.05427C30.9557 2.26729 28.709 0 25.9475 0H5.00824C2.24674 0 0 2.26729 0 5.05427V44.9458C0 47.7327 2.24664 50 5.00824 50H25.9474C28.709 50 30.9556 47.7327 30.9556 44.9458V36.1053C30.9557 35.7011 30.631 35.3735 30.2305 35.3735Z" fill="#F66359"/>
<path d="M27.3299 10.5264C27.7305 10.5264 28.0551 10.1987 28.0551 9.79454V5.05427C28.0551 3.8814 27.1097 2.9273 25.9475 2.9273H23.5642C23.1339 2.9273 22.7466 3.20178 22.6003 3.61063L22.4831 3.93858C22.3154 4.40832 21.8701 4.72398 21.3754 4.72398H14.7663C14.3658 4.72398 14.0411 5.05164 14.0411 5.4558C14.0411 5.85996 14.3658 6.18762 14.7663 6.18762H21.3754C22.4796 6.18762 23.473 5.48332 23.8475 4.43495L23.8633 4.39095H25.9475C26.3099 4.39095 26.6047 4.68846 26.6047 5.05427V9.79464C26.6047 10.1988 26.9293 10.5264 27.3299 10.5264Z" fill="#F66359"/>
<path d="M28.683 11.9092C26.7223 11.9092 24.846 12.5173 23.2572 13.6677C22.9319 13.9034 22.8572 14.3606 23.0907 14.689C23.3243 15.0175 23.7775 15.0926 24.1027 14.857C25.4435 13.8861 27.0274 13.373 28.683 13.373C33.0206 13.373 36.5496 16.9344 36.5496 21.3119C36.5496 24.3055 32.4973 29.2009 28.7049 32.7839C28.6921 32.796 28.6736 32.7959 28.661 32.7839C24.8686 29.201 20.8163 24.3058 20.8163 21.3119C20.8163 19.7374 21.2723 18.2158 22.1349 16.9113C22.3572 16.5751 22.2673 16.1207 21.9342 15.8964C21.6012 15.672 21.1508 15.7627 20.9286 16.0989C19.9064 17.6446 19.3661 19.4472 19.3661 21.3119C19.3661 23.221 20.5429 25.6864 22.8639 28.6394C24.6493 30.9113 26.6413 32.8806 27.6699 33.8522C27.9539 34.1207 28.3184 34.2549 28.6831 34.2549C29.0476 34.2549 29.4122 34.1207 29.6963 33.8523C30.7248 32.8805 32.717 30.911 34.5022 28.6394C36.8232 25.6863 38 23.2209 38 21.3119C37.9999 16.1273 33.8204 11.9092 28.683 11.9092Z" fill="#F66359"/>
<path d="M33.8914 21.3119C33.8914 18.4136 31.5549 16.0555 28.683 16.0555C25.811 16.0555 23.4746 18.4136 23.4746 21.3119C23.4746 24.2102 25.811 26.5682 28.683 26.5682C31.5549 26.5682 33.8914 24.2102 33.8914 21.3119ZM24.9249 21.3119C24.9249 19.2206 26.6108 17.5192 28.683 17.5192C30.7553 17.5192 32.4411 19.2206 32.4411 21.3119C32.4411 23.4032 30.7552 25.1045 28.683 25.1045C26.6107 25.1045 24.9249 23.4032 24.9249 21.3119Z" fill="#F66359"/>
<path d="M20.4782 27.8684C20.1994 27.5783 19.7404 27.5712 19.4528 27.8527L14.3173 32.8814C14.1554 33.0398 14.0646 33.2613 14.0684 33.4889C14.0722 33.7165 14.17 33.9347 14.3368 34.0875L26.5243 45.2634C26.4125 45.4692 26.196 45.6091 25.9475 45.6091H23.3068L12.5223 35.7198C12.2028 35.4264 11.7097 35.4345 11.4001 35.7381L4.35115 42.6403V39.2413L9.78318 33.9224C10.0706 33.641 10.0775 33.1776 9.79865 32.8876C9.5197 32.5975 9.06072 32.5905 8.77327 32.872L4.35115 37.202V5.05427C4.35115 4.68846 4.64595 4.39095 5.00844 4.39095H7.18933L7.20509 4.43505C7.57956 5.48341 8.57303 6.18772 9.67721 6.18772H11.676C12.0765 6.18772 12.4012 5.86006 12.4012 5.4559C12.4012 5.05173 12.0765 4.72407 11.676 4.72407H9.67721C9.18236 4.72407 8.73721 4.40851 8.56936 3.93868L8.45227 3.61082C8.30636 3.20207 7.91893 2.9274 7.48838 2.9274H5.00844C3.84625 2.9274 2.90083 3.8815 2.90083 5.05437V44.9459C2.90083 46.1188 3.84625 47.0729 5.00844 47.0729H25.9476C27.1098 47.0729 28.0552 46.1188 28.0552 44.9459V36.191C28.0552 35.7868 27.7306 35.4591 27.33 35.4591C26.9294 35.4591 26.6048 35.7868 26.6048 36.191V43.3597L15.8091 33.46L20.4627 28.9033C20.7502 28.6218 20.7572 28.1585 20.4782 27.8684ZM4.35096 44.9458V44.6796L11.9849 37.2047L21.1501 45.6091H5.00824C4.64586 45.6091 4.35096 45.3115 4.35096 44.9458Z" fill="#F66359"/>
<path d="M17.4807 24.3456L10.9913 30.6998C10.7038 30.9812 10.697 31.4446 10.9758 31.7346C11.118 31.8826 11.3071 31.9568 11.4963 31.9568C11.6782 31.9568 11.8603 31.8881 12.0012 31.7502L18.4906 25.396C18.7781 25.1146 18.785 24.6512 18.5061 24.3612C18.2273 24.0712 17.7682 24.064 17.4807 24.3456Z" fill="#F66359"/>
<path d="M10.8057 22.5543C11.2062 22.5543 11.5309 22.2267 11.5309 21.8225V18.2986C12.9139 17.9673 13.9462 16.7112 13.9462 15.2155C13.9462 13.4679 12.5374 12.0462 10.8057 12.0462C9.07407 12.0462 7.66532 13.4679 7.66532 15.2155C7.66532 16.7112 8.69756 17.9673 10.0806 18.2986V21.8225C10.0806 22.2267 10.4053 22.5543 10.8057 22.5543ZM9.11564 15.2155C9.11564 14.275 9.87387 13.5099 10.8057 13.5099C11.7376 13.5099 12.4959 14.275 12.4959 15.2155C12.4959 16.156 11.7377 16.9211 10.8057 16.9211C9.87377 16.9211 9.11564 16.156 9.11564 15.2155Z" fill="#F66359"/>
</svg>
