<svg width="45" height="45" viewBox="0 0 45 45" fill="none" xmlns="http://www.w3.org/2000/svg">
<path d="M18.9853 30.4102C19.4708 30.4102 19.8643 30.0167 19.8643 29.5312C19.8643 29.0458 19.4708 28.6523 18.9853 28.6523C18.4999 28.6523 18.1064 29.0458 18.1064 29.5312C18.1064 30.0167 18.4999 30.4102 18.9853 30.4102Z" fill="#F66359"/>
<path d="M3.51581 11.9531V15.4688C3.51581 15.9542 3.90931 16.3477 4.39476 16.3477H29.7964C30.2818 16.3477 30.6754 15.9542 30.6754 15.4688V11.9531C30.6754 11.4677 30.2818 11.0742 29.7964 11.0742H4.39476C3.90931 11.0742 3.51581 11.4677 3.51581 11.9531ZM12.8327 12.832H28.9175V14.5898H12.8327V12.832ZM5.27371 12.832H11.0748V14.5898H5.27371V12.832Z" fill="#F66359"/>
<path d="M4.39476 19.8633H29.7964C30.2818 19.8633 30.6754 19.4698 30.6754 18.9844C30.6754 18.499 30.2818 18.1055 29.7964 18.1055H4.39476C3.90931 18.1055 3.51581 18.499 3.51581 18.9844C3.51581 19.4698 3.90931 19.8633 4.39476 19.8633Z" fill="#F66359"/>
<path d="M4.39476 23.3789H29.7964C30.2818 23.3789 30.6754 22.9854 30.6754 22.5C30.6754 22.0146 30.2818 21.6211 29.7964 21.6211H4.39476C3.90931 21.6211 3.51581 22.0146 3.51581 22.5C3.51581 22.9854 3.90931 23.3789 4.39476 23.3789Z" fill="#F66359"/>
<path d="M4.39476 26.8945H18.9853C19.4708 26.8945 19.8643 26.501 19.8643 26.0156C19.8643 25.5302 19.4708 25.1367 18.9853 25.1367H4.39476C3.90931 25.1367 3.51581 25.5302 3.51581 26.0156C3.51581 26.501 3.90931 26.8945 4.39476 26.8945Z" fill="#F66359"/>
<path d="M4.39476 30.4102H15.4695C15.955 30.4102 16.3485 30.0167 16.3485 29.5312C16.3485 29.0458 15.955 28.6523 15.4695 28.6523H4.39476C3.90931 28.6523 3.51581 29.0458 3.51581 29.5312C3.51581 30.0167 3.90931 30.4102 4.39476 30.4102Z" fill="#F66359"/>
<path d="M11.9537 37.4414H16.4369C16.8453 39.4449 18.6208 40.957 20.7432 40.957C23.1665 40.957 25.138 38.9856 25.138 36.5625C25.138 34.1394 23.1665 32.168 20.7432 32.168C18.6209 32.168 16.8453 33.6801 16.4369 35.6836H11.9537C11.4683 35.6836 11.0748 36.0771 11.0748 36.5625C11.0748 37.0479 11.4683 37.4414 11.9537 37.4414ZM20.7432 35.6836H18.2576C18.6204 34.6606 19.5974 33.9258 20.7432 33.9258C22.1972 33.9258 23.3801 35.1086 23.3801 36.5625C23.3801 38.0164 22.1972 39.1992 20.7432 39.1992C19.5974 39.1992 18.6204 38.4644 18.2576 37.4414H20.7432C21.2286 37.4414 21.6222 37.0479 21.6222 36.5625C21.6222 36.0771 21.2287 35.6836 20.7432 35.6836Z" fill="#F66359"/>
<path d="M29.7964 7.03125C30.2818 7.03125 30.6754 6.63776 30.6754 6.15234C30.6754 5.66692 30.2818 5.27344 29.7964 5.27344H28.0385C27.5532 5.27344 27.1596 5.66692 27.1596 6.15234C27.1596 6.63776 27.5532 7.03125 28.0385 7.03125H29.7964Z" fill="#F66359"/>
<path d="M24.5227 7.03125C25.0081 7.03125 25.4017 6.63776 25.4017 6.15234C25.4017 5.66692 25.0081 5.27344 24.5227 5.27344H22.7648C22.2795 5.27344 21.8859 5.66692 21.8859 6.15234C21.8859 6.63776 22.2795 7.03125 22.7648 7.03125H24.5227Z" fill="#F66359"/>
<path d="M19.249 7.03125C19.7345 7.03125 20.128 6.63776 20.128 6.15234C20.128 5.66692 19.7345 5.27344 19.249 5.27344H17.4911C17.0057 5.27344 16.6122 5.66692 16.6122 6.15234C16.6122 6.63776 17.0057 7.03125 17.4911 7.03125H19.249Z" fill="#F66359"/>
<path d="M17.2274 45C17.7129 45 18.1064 44.6065 18.1064 44.1211C18.1064 43.6357 17.7129 43.2422 17.2274 43.2422C16.742 43.2422 16.3485 43.6357 16.3485 44.1211C16.3485 44.6065 16.742 45 17.2274 45Z" fill="#F66359"/>
<path d="M0.878951 45H13.2722C13.7576 45 14.1511 44.6065 14.1511 44.1211C14.1511 43.6357 13.7576 43.2422 13.2722 43.2422H1.7579V8.78906H7.91056C8.39601 8.78906 8.78951 8.39558 8.78951 7.91016V1.75781H32.4333V26.6003C32.0346 27.072 31.6623 27.4861 31.3401 27.8166L29.4768 25.9533C27.7597 24.2352 24.9789 24.2344 23.2613 25.9531L22.0184 27.1959C21.6752 27.5391 21.6752 28.0956 22.0184 28.4389L32.4332 38.8531V43.2422H21.1826C20.6972 43.2422 20.3037 43.6357 20.3037 44.1211C20.3037 44.6065 20.6972 45 21.1826 45H33.3122C33.7975 45 34.1911 44.6065 34.1911 44.1211V40.6109L34.4486 40.8684C34.7918 41.2113 35.3484 41.2116 35.6917 40.8684L36.9345 39.6256C38.6518 37.9084 38.6521 35.1281 36.9345 33.4107L35.0714 31.5476C36.7387 29.9231 40.4061 27.2247 42.333 26.3856C45.0377 25.2083 46.0137 21.531 43.706 19.2234C41.4157 16.9321 37.7546 17.8632 36.5552 20.5755C36.1054 21.592 35.1734 23.0213 34.1912 24.3606V0.878906C34.1912 0.393486 33.7976 0 33.3123 0H7.91056C7.67087 0 7.4456 0.101074 7.28905 0.257432L0.257445 7.28868C0.0984425 7.44732 0 7.67162 0 7.91016V44.1211C0 44.6065 0.393506 45 0.878951 45ZM35.6914 34.6536C36.7218 35.6839 36.722 37.3521 35.6914 38.3826L35.0702 39.0039L23.883 27.8174L24.5045 27.1959C25.5349 26.1651 27.2027 26.1646 28.2336 27.1961L35.6914 34.6536ZM34.0012 27.4661C35.5244 25.6291 37.402 23.0059 38.1628 21.2866C38.846 19.7417 41.0173 19.0201 42.4629 20.4663C43.9092 21.9125 43.1744 24.1022 41.6313 24.7739C39.4442 25.7265 35.6375 28.5356 33.8283 30.3045L32.5832 29.0595C33 28.6332 33.4868 28.0866 34.0012 27.4661ZM7.03161 3.00076V7.03125H3.00092L7.03161 3.00076Z" fill="#F66359"/>
</svg>
