<svg width="51" height="50" viewBox="0 0 51 50" fill="none" xmlns="http://www.w3.org/2000/svg">
<path d="M50.1499 43.3334H49.3001V37.5C49.3001 37.0398 48.9194 36.6666 48.4497 36.6666H45.8997V32.5C45.8997 32.0395 45.519 31.6666 45.0499 31.6666H42.4996V27.4997C42.4996 27.0398 42.1192 26.6666 41.6495 26.6666H35.6997V0.833435C35.6997 0.372925 35.3193 0 34.8496 0C34.3805 0 33.9995 0.372925 33.9995 0.833435V15H32.2996V0.833435C32.2996 0.372925 31.9189 0 31.4498 0C30.9801 0 30.5994 0.372925 30.5994 0.833435V15H28.8995V0.833435C28.8995 0.372925 28.5191 0 28.0494 0C27.58 0 27.1996 0.372925 27.1996 0.833435V43.3334H13.6001V0.833435C13.6001 0.372925 13.2191 0 12.75 0C12.2803 0 11.8999 0.372925 11.8999 0.833435V15H10.1997V0.833435C10.1997 0.372925 9.8193 0 9.3499 0C8.88049 0 8.49979 0.372925 8.49979 0.833435V15H6.7999V0.833435C6.7999 0.372925 6.4192 0 5.9501 0C5.48038 0 5.1 0.372925 5.1 0.833435V43.3334H0.850104C0.380383 43.3334 0 43.7064 0 44.1666V49.1669C0 49.6268 0.380383 50 0.850104 50H50.1502C50.6193 50 51 49.6268 51 49.1669V44.1666C51 43.7064 50.6193 43.3334 50.1499 43.3334ZM47.5999 43.3334H35.6997V38.3334H47.5999V43.3334ZM44.2001 36.6666H35.6997V33.3331H44.2001V36.6666ZM40.8 28.3331V31.6666H35.6997V28.3331H40.8ZM28.8998 16.6669H33.9998V43.3334H28.8998V16.6669ZM6.7999 16.6669H11.8999V43.3334H6.7999V16.6669ZM49.3001 48.3334H1.6999V45H49.3001V48.3334Z" fill="#F66359"/>
</svg>
