<svg width="42" height="45" viewBox="0 0 42 45" fill="none" xmlns="http://www.w3.org/2000/svg">
<path d="M41.0824 0H15.9262C15.4202 0 15.0086 0.413965 15.0086 0.922851V2.98819H12.9551C12.4491 2.98819 12.0375 3.40216 12.0375 3.91104V12.0023L2.41233 16.8405C1.89072 17.1026 1.56668 17.6298 1.56668 18.2163V23.2888C1.56668 25.0098 1.76907 26.5454 2.15445 27.9379C0.836648 29.0806 0 30.77 0 32.6532C0 36.0867 2.77744 38.8802 6.19132 38.8802C7.00157 38.8802 7.77522 38.7212 8.48515 38.4353V41.971C8.48515 42.3636 8.71568 42.7202 9.07248 42.8795C9.42911 43.0387 9.84691 42.9714 10.1363 42.7081L12.5398 40.5213L14.9434 42.7081C15.1286 42.8766 15.3662 42.9647 15.6068 42.9647C15.7422 42.9647 15.8787 42.9368 16.0073 42.8794C16.3641 42.72 16.5946 42.3634 16.5946 41.9709V36.7765H21.5243C21.8864 36.7765 22.1797 36.4814 22.1797 36.1173C22.1797 35.7533 21.8864 35.4581 21.5243 35.4581H17.9082C19.2973 34.2624 20.4571 32.9798 21.3551 31.5322H32.8422C33.2043 31.5322 33.4976 31.2371 33.4976 30.8731C33.4976 30.509 33.2043 30.2139 32.8422 30.2139H22.0761C22.3343 29.6731 22.5598 29.1095 22.7504 28.5195H24.9324C25.2945 28.5195 25.5878 28.2244 25.5878 27.8604C25.5878 27.4963 25.2945 27.2012 24.9324 27.2012H23.1094C23.23 26.6586 23.3237 26.0942 23.3906 25.5068H32.8421C33.2042 25.5068 33.4975 25.2117 33.4975 24.8476C33.4975 24.4836 33.2042 24.1885 32.8421 24.1885H23.4917C23.5044 23.8937 23.5127 23.595 23.5127 23.2887V22.4941H32.8421C33.2042 22.4941 33.4975 22.199 33.4975 21.8349C33.4975 21.4709 33.2042 21.1757 32.8421 21.1757H23.5128V19.4814H26.855C27.217 19.4814 27.5104 19.1863 27.5104 18.8222C27.5104 18.4582 27.217 18.163 26.855 18.163H23.511C23.492 17.5981 23.1729 17.0945 22.6672 16.8404L21.9278 16.4687H32.8421C33.2042 16.4687 33.4975 16.1735 33.4975 15.8095C33.4975 15.4455 33.2042 15.1503 32.8421 15.1503H19.3049L13.3483 12.1561V4.30655H37.7181V9.22851C37.7181 9.59256 38.0115 9.88769 38.3735 9.88769C38.7356 9.88769 39.0289 9.59256 39.0289 9.22851V3.91104C39.0289 3.40216 38.6173 2.98819 38.1113 2.98819H16.3194V1.31836H40.6893V32.47H39.0289V12.3047C39.0289 11.9406 38.7356 11.6455 38.3735 11.6455C38.0115 11.6455 37.7181 11.9406 37.7181 12.3047V35.4582H24.5829C24.2208 35.4582 23.9275 35.7534 23.9275 36.1174C23.9275 36.4815 24.2208 36.7766 24.5829 36.7766H38.1113C38.6173 36.7766 39.0289 36.3626 39.0289 35.8537V33.7884H41.0824C41.5884 33.7884 42 33.3744 42 32.8656V0.922851C42 0.413965 41.5884 0 41.0824 0ZM1.31081 32.6532C1.31081 29.9466 3.50022 27.7446 6.19132 27.7446C8.88241 27.7446 11.0718 29.9466 11.0718 32.6532C11.0718 35.3598 8.88241 37.5618 6.19132 37.5618C3.50022 37.5618 1.31081 35.3598 1.31081 32.6532ZM13.2027 39.3467C12.8247 39.0029 12.2546 39.0029 11.8768 39.3467L9.79588 41.24V37.7112C11.3606 36.58 12.3825 34.735 12.3825 32.6533C12.3825 32.0851 12.305 31.5351 12.1626 31.0117C12.2876 31.0189 12.413 31.0239 12.5398 31.0239C13.517 31.0239 14.4452 30.8111 15.2836 30.4319V41.24L13.2027 39.3467ZM22.202 18.2163V23.2888C22.202 26.7601 21.3415 29.5034 19.4941 31.9222C18.7229 32.9319 17.7871 33.8832 16.5944 34.8534V29.6488C18.209 28.4144 19.2539 26.4635 19.2539 24.271C19.2539 23.1867 18.9906 22.1068 18.4924 21.1481C18.3248 20.8254 17.9288 20.7006 17.608 20.8692C17.2872 21.0378 17.163 21.4361 17.3307 21.7587C17.737 22.5408 17.9431 23.3861 17.9431 24.2711C17.9431 27.2676 15.5192 29.7055 12.5398 29.7055C12.218 29.7055 11.9029 29.6764 11.5965 29.6218C10.7681 28.1335 9.35037 27.021 7.66283 26.6055C7.32613 25.8978 7.13641 25.1066 7.13641 24.2711C7.13641 21.2745 9.56028 18.8366 12.5398 18.8366C13.5936 18.8366 14.6157 19.1431 15.4957 19.7228C15.7983 19.9223 16.2047 19.8373 16.4031 19.5326C16.6014 19.2281 16.5168 18.8195 16.214 18.6201C15.12 17.8993 13.8495 17.5183 12.5398 17.5183C8.83758 17.5183 5.8256 20.5475 5.8256 24.2711C5.8256 25.0247 5.94995 25.7495 6.17795 26.4267C5.14109 26.4289 4.16384 26.6896 3.30508 27.1468C3.01871 25.9605 2.8775 24.6843 2.8775 23.2889V18.2164C2.8775 18.1326 2.92372 18.0573 2.99826 18.0199L12.5397 13.2238L22.0812 18.0199C22.1557 18.0572 22.202 18.1325 22.202 18.2163Z" fill="#F66359"/>
<path d="M17.5689 12.797C17.5689 13.1611 17.8624 13.4562 18.2243 13.4562H32.8422C33.2043 13.4562 33.4976 13.1611 33.4976 12.797C33.4976 12.433 33.2043 12.1379 32.8422 12.1379H18.2243C17.8623 12.1379 17.5689 12.4329 17.5689 12.797Z" fill="#F66359"/>
<path d="M32.8421 18.1632H29.3018C28.9398 18.1632 28.6464 18.4583 28.6464 18.8224C28.6464 19.1864 28.9398 19.4816 29.3018 19.4816H32.8422C33.2043 19.4816 33.4976 19.1864 33.4976 18.8224C33.4976 18.4583 33.2042 18.1632 32.8421 18.1632Z" fill="#F66359"/>
<path d="M32.8421 27.2013H27.2919C26.9299 27.2013 26.6365 27.4964 26.6365 27.8604C26.6365 28.2245 26.9299 28.5196 27.2919 28.5196H32.8422C33.2043 28.5196 33.4976 28.2245 33.4976 27.8604C33.4976 27.4964 33.2042 27.2013 32.8421 27.2013Z" fill="#F66359"/>
<path d="M30.0264 9.1045C30.3885 9.1045 30.6818 8.80936 30.6818 8.44532C30.6818 8.08128 30.3885 7.78614 30.0264 7.78614H21.04C20.6781 7.78614 20.3846 8.08128 20.3846 8.44532C20.3846 8.80936 20.6781 9.1045 21.04 9.1045H30.0264Z" fill="#F66359"/>
<path d="M14.5626 22.7385L12.2266 25.088L10.6981 23.5507C10.4421 23.2933 10.0271 23.2933 9.77123 23.5507C9.51527 23.8082 9.51527 24.2256 9.77123 24.4829L11.7631 26.4863C11.8911 26.615 12.0589 26.6794 12.2266 26.6794C12.3943 26.6794 12.562 26.615 12.69 26.4863L15.4895 23.6707C15.7455 23.4133 15.7455 22.9959 15.4895 22.7385C15.2335 22.4811 14.8185 22.4811 14.5626 22.7385Z" fill="#F66359"/>
<path d="M24.5687 39.8439L23.2259 39.6476L22.6254 38.4238C22.6254 38.4238 22.6254 38.4238 22.6253 38.4238C22.4576 38.082 22.118 37.8698 21.7391 37.8698C21.3603 37.8698 21.0207 38.082 20.8529 38.4238L20.2524 39.6476L18.9095 39.8439C18.5345 39.8987 18.2289 40.1579 18.1118 40.5203C17.9947 40.8828 18.0904 41.2731 18.3619 41.5392L19.3335 42.4919L19.1041 43.8369C19.0401 44.2126 19.1907 44.5851 19.4973 44.8091C19.6705 44.9357 19.8731 45 20.0773 45C20.2343 45 20.3922 44.9618 20.5381 44.8848L21.7391 44.2497L22.9402 44.8848C23.2756 45.062 23.6741 45.0331 23.9809 44.8091C24.2874 44.5851 24.4381 44.2127 24.374 43.8369L24.1446 42.4919L25.1164 41.5392C25.3876 41.2733 25.4835 40.8828 25.3664 40.5204C25.2494 40.158 24.9438 39.8987 24.5687 39.8439ZM23.1083 41.6669C22.8753 41.8953 22.7691 42.2241 22.8241 42.5467L22.9716 43.412L22.199 43.0036C22.055 42.9274 21.897 42.8893 21.739 42.8893C21.581 42.8893 21.4232 42.9274 21.2792 43.0035L20.5066 43.412L20.6541 42.5467C20.7091 42.2241 20.6028 41.8953 20.3699 41.6669L19.7448 41.0541L20.6086 40.9278C20.9304 40.8808 21.2086 40.6776 21.3527 40.3841L21.739 39.5968L22.1253 40.3841C22.2692 40.6775 22.5475 40.8808 22.8695 40.9278L23.7333 41.0541L23.1083 41.6669Z" fill="#F66359"/>
<path d="M32.6787 39.8439L31.3359 39.6476L30.7355 38.4238C30.7355 38.4238 30.7355 38.4238 30.7354 38.4238C30.5677 38.082 30.2281 37.8698 29.8492 37.8698C29.4704 37.8698 29.1308 38.082 28.963 38.4238L28.3626 39.6476L27.0196 39.8439C26.6446 39.8987 26.339 40.1579 26.2219 40.5204C26.1048 40.8828 26.2007 41.2732 26.4719 41.5392L27.4437 42.4919L27.2143 43.8368C27.1502 44.2124 27.3007 44.5849 27.6072 44.809C27.9137 45.0331 28.3125 45.0621 28.6482 44.8848L29.8491 44.2497L31.0502 44.8848C31.1961 44.9618 31.3539 45 31.511 45C31.7149 45 31.9176 44.9357 32.0909 44.8091C32.3974 44.5851 32.5481 44.2127 32.484 43.8369L32.2546 42.4919L33.2264 41.5392C33.4976 41.2733 33.5935 40.8828 33.4764 40.5204C33.3595 40.158 33.0538 39.8987 32.6787 39.8439ZM31.2184 41.6669C30.9854 41.8953 30.8792 42.2241 30.9342 42.5467L31.0817 43.412L30.3091 43.0036C30.1651 42.9274 30.0071 42.8893 29.8491 42.8893C29.6911 42.8893 29.5333 42.9274 29.3893 43.0035L28.6166 43.412L28.7642 42.5467C28.8192 42.2242 28.7129 41.8953 28.4799 41.6669L27.8548 41.0541L28.7187 40.9278C29.0407 40.8808 29.3189 40.6775 29.4629 40.3841L29.8491 39.5968L30.2355 40.3841C30.3794 40.6775 30.6576 40.8808 30.9797 40.9278L31.8435 41.0541L31.2184 41.6669Z" fill="#F66359"/>
<path d="M40.7889 39.8439L39.4461 39.6476L38.8457 38.4238C38.8457 38.4238 38.8457 38.4238 38.8456 38.4238C38.6779 38.082 38.3383 37.8698 37.9595 37.8698C37.5806 37.8698 37.241 38.082 37.0732 38.4238L36.4727 39.6476L35.1298 39.8439C34.7548 39.8987 34.4492 40.1579 34.3321 40.5204C34.215 40.8828 34.3109 41.2733 34.5821 41.5392L35.5539 42.4919L35.3245 43.8368C35.2603 44.2124 35.4109 44.585 35.7175 44.809C35.8907 44.9357 36.0934 45 36.2974 45C36.4546 45 36.6124 44.9618 36.7582 44.8848L37.9593 44.2497L39.1603 44.8848C39.4957 45.062 39.8943 45.0331 40.201 44.8091C40.5076 44.5851 40.6583 44.2127 40.5942 43.8369L40.3648 42.4919L41.3366 41.5391C41.6079 41.2731 41.7037 40.8827 41.5865 40.5203C41.4696 40.1579 41.1639 39.8987 40.7889 39.8439ZM39.3288 41.6666C39.0957 41.895 38.9893 42.224 39.0444 42.5467L39.1919 43.412L38.4193 43.0036C38.2754 42.9274 38.1174 42.8893 37.9594 42.8893C37.8014 42.8893 37.6435 42.9274 37.4994 43.0035L36.7268 43.412L36.8744 42.5467C36.9293 42.2242 36.8231 41.8953 36.5901 41.6669L35.965 41.0541L36.8288 40.9278C37.1506 40.8808 37.4287 40.6777 37.573 40.3841L37.9594 39.5968L38.3456 40.3841C38.4896 40.6775 38.7678 40.8808 39.0898 40.9278L39.9536 41.0541L39.3288 41.6666Z" fill="#F66359"/>
<path d="M8.74469 31.1572L7.57186 30.9857L7.04736 29.9168C6.88535 29.5867 6.55738 29.3816 6.19132 29.3816C5.82525 29.3816 5.4972 29.5867 5.33527 29.9168L4.81077 30.9857L3.63803 31.1571C3.27581 31.21 2.98053 31.4604 2.86736 31.8105C2.75419 32.1607 2.84674 32.5378 3.1089 32.7948L3.95761 33.6269L3.75731 34.8016C3.69544 35.1645 3.84094 35.5243 4.1371 35.7408C4.30445 35.8631 4.50019 35.9252 4.69734 35.9252C4.84905 35.9252 5.00154 35.8884 5.14249 35.8138L6.19149 35.2592L7.24049 35.8138C7.56452 35.9852 7.94973 35.9572 8.24588 35.7408C8.54204 35.5244 8.68754 35.1645 8.62567 34.8017L8.42538 33.6269L9.27409 32.7948C9.53625 32.5378 9.62879 32.1607 9.51562 31.8105C9.40211 31.4604 9.10683 31.2101 8.74469 31.1572ZM7.37603 32.8143C7.15101 33.0349 7.04833 33.3526 7.10146 33.6641L7.21148 34.3092L6.63551 34.0047C6.35735 33.8577 6.02519 33.8577 5.74704 34.0047L5.17107 34.3092L5.28109 33.6641C5.33422 33.3526 5.23154 33.0349 5.00652 32.8144L4.54048 32.3575L5.18418 32.2634C5.49536 32.2181 5.76417 32.0217 5.9032 31.7382L6.19123 31.1512L6.47917 31.738C6.61821 32.0216 6.88701 32.218 7.19802 32.2633L7.84198 32.3575L7.37603 32.8143Z" fill="#F66359"/>
</svg>
