<svg width="46" height="50" viewBox="0 0 46 50" fill="none" xmlns="http://www.w3.org/2000/svg">
<path d="M6.53953 24.1041C5.70667 24.1041 4.92344 24.4279 4.33345 25.0165C3.12068 26.23 3.12068 28.2044 4.33423 29.4187C4.92354 30.0066 5.70667 30.3303 6.53953 30.3303C7.37249 30.3303 8.15562 30.0066 8.74414 29.4195C9.33452 28.8322 9.66001 28.0512 9.6606 27.2205C9.66128 26.3886 9.33609 25.6056 8.74492 25.0157C8.15562 24.4279 7.37249 24.1041 6.53953 24.1041ZM7.70659 28.383C7.39461 28.6942 6.98024 28.8655 6.53953 28.8655C6.09892 28.8655 5.68445 28.6941 5.37335 28.3836C4.7305 27.7405 4.7305 26.6939 5.37257 26.0515C5.68445 25.7404 6.09892 25.569 6.53953 25.569C6.98024 25.569 7.39461 25.7404 7.70659 26.0515C8.02014 26.3644 8.19272 26.7791 8.19233 27.2195C8.19203 27.6584 8.01974 28.0714 7.70659 28.383Z" fill="#F66359"/>
<path d="M21.461 39.967C21.1755 39.6797 20.7135 39.6804 20.4255 39.9654C20.1376 40.2501 20.1383 40.7166 20.4237 41.0039C20.5674 41.1484 20.7561 41.2207 20.9451 41.2207C21.1319 41.2207 21.3189 41.15 21.462 41.0084C21.7499 40.7237 21.7519 40.2599 21.4665 39.9727L21.461 39.967Z" fill="#F66359"/>
<path d="M42.7051 27.4533H35.185C34.7794 27.4533 34.4508 27.7812 34.4508 28.1857C34.4508 28.5902 34.7794 28.9181 35.185 28.9181H42.7051C43.7122 28.9181 44.5315 29.8441 44.5315 30.9824V31.6859H23.3586V28.9181H31.7763C32.1819 28.9181 32.5105 28.5902 32.5105 28.1857C32.5105 27.7812 32.1819 27.4533 31.7763 27.4533H23.1238C22.4436 27.4533 21.8903 28.0252 21.8903 28.7284V31.8757C21.8903 32.5788 22.4435 33.1508 23.1238 33.1508H30.9311C30.6223 33.5409 30.2889 33.9156 29.9323 34.2714C28.5357 35.6646 26.8293 36.7144 24.9687 37.3335C24.1584 35.9541 22.6575 35.0252 20.9425 35.0252C19.2285 35.0252 17.7284 35.9529 16.9178 37.331C15.0604 36.7123 13.3564 35.6634 11.9611 34.2715C11.3965 33.7081 10.8892 33.0971 10.446 32.4495C10.6962 32.2634 10.9364 32.058 11.1634 31.8315C12.3988 30.599 13.0793 28.9604 13.0793 27.2177C13.0793 25.4751 12.3989 23.8375 11.1637 22.6064C10.519 21.9623 9.76231 21.4712 8.93826 21.1473C9.43848 19.7027 10.1872 18.3816 11.1719 17.2056L18.0435 22.9193C18.2666 23.1064 18.5429 23.2063 18.8312 23.2063C18.8687 23.2063 18.9064 23.2046 18.9442 23.2012C19.1398 23.1836 19.3236 23.1204 19.4851 23.0198L20.4895 23.8565C20.8775 24.1786 21.349 24.3358 21.8178 24.3358C22.4125 24.3358 23.0027 24.0828 23.4115 23.593L23.5274 23.4543L24.9436 24.6325C25.3935 25.0068 25.9434 25.1903 26.5031 25.1903C27.1944 25.1903 27.9003 24.9099 28.4491 24.3624C28.8998 23.9127 29.1315 23.3005 29.1014 22.6384C29.0685 21.9147 28.7305 21.2345 28.1746 20.7724L26.7569 19.5911L26.8723 19.453C27.2267 19.0304 27.3944 18.4937 27.3445 17.9416C27.2945 17.3896 27.0333 16.8915 26.6097 16.5397L25.6019 15.7001C25.6734 15.5205 25.7022 15.3254 25.6829 15.1275C25.6509 14.8006 25.4932 14.5067 25.2451 14.3048L23.2145 12.6157L23.2144 12.6156L14.9617 5.75409C14.3009 5.20272 13.4619 4.94168 12.5977 5.01873C11.8708 5.08377 11.2035 5.38231 10.6798 5.86854L8.13614 3.74948L8.1472 3.7363C8.9547 2.77428 8.82608 1.33531 7.8593 0.527489C7.39177 0.138424 6.79865 -0.0453665 6.18986 0.00951671C5.58108 0.0645952 5.03112 0.351902 4.64122 0.818214L1.04274 5.12049C0.653033 5.5867 0.46841 6.17792 0.523131 6.78505C0.57795 7.39228 0.865065 7.94043 1.33152 8.32813C1.75793 8.68301 2.27725 8.85616 2.79392 8.85616C3.44773 8.85616 4.09734 8.57872 4.54872 8.04121C4.54901 8.04082 4.5494 8.04043 4.54969 8.03994L4.56134 8.02598L7.10593 10.1437C6.37664 11.2813 6.44193 12.7494 7.23368 13.8129C5.37306 16.0179 4.07629 18.6435 3.45478 21.4631C2.89562 21.7624 2.37749 22.1452 1.91622 22.6054C0.68054 23.8366 0 25.4745 0 27.2173C0 28.96 0.680442 30.5986 1.91622 31.8314C2.8132 32.7252 3.90792 33.3033 5.06078 33.5684C5.89864 35.1746 6.98073 36.6445 8.28111 37.942C10.5033 40.159 13.2582 41.7467 16.278 42.558V44.4807H11.3108C10.9052 44.4807 10.5766 44.8087 10.5766 45.2132C10.5766 45.6176 10.9052 45.9456 11.3108 45.9456H38.7414C38.7486 45.9456 38.7603 45.9572 38.7603 45.9644V48.5162C38.7603 48.5234 38.7486 48.5351 38.7414 48.5351H3.14349C3.13624 48.5351 3.12459 48.5234 3.12459 48.5162V45.9644C3.12459 45.9572 3.13624 45.9456 3.14349 45.9456H7.90218C8.30774 45.9456 8.63636 45.6176 8.63636 45.2132C8.63636 44.8087 8.30774 44.4807 7.90218 44.4807H3.14349C2.32335 44.4807 1.65622 45.1464 1.65622 45.9644V48.5162C1.65622 49.3344 2.32335 50 3.14349 50H38.7414C39.5615 50 40.2286 49.3344 40.2286 48.5162V45.9644C40.2286 45.1464 39.5615 44.4807 38.7414 44.4807H25.6069V42.5609C28.6314 41.7493 31.3883 40.1605 33.6093 37.942C35.0219 36.5327 36.1747 34.9224 37.0416 33.1504H44.7693C45.448 33.1504 46 32.5784 46 31.8753V30.982C45.9999 29.0364 44.5219 27.4533 42.7051 27.4533ZM27.2338 21.8972C27.4706 22.094 27.6204 22.3959 27.6344 22.7048C27.6423 22.8788 27.6099 23.1279 27.4106 23.3268C27.0165 23.7198 26.3658 23.9083 25.8839 23.5075L24.4677 22.3295L25.8166 20.7164L27.2338 21.8972ZM25.6693 17.6648C25.7918 17.7666 25.8673 17.9116 25.882 18.0732C25.8966 18.2349 25.8483 18.3912 25.7453 18.5139L22.2833 22.6552C22.0733 22.9066 21.6821 22.9411 21.4296 22.7313L20.4727 21.9343L24.7092 16.865L25.6693 17.6648ZM11.523 7.10507C11.8258 6.74306 12.254 6.5203 12.7288 6.47782C12.7835 6.47294 12.8379 6.4705 12.8921 6.4705C13.3061 6.4705 13.7015 6.61239 14.0205 6.87861L24.1232 15.2789L18.8034 21.6443L8.70058 13.244C7.95005 12.6213 7.84883 11.5036 8.47425 10.7531L11.523 7.10507ZM3.42248 7.10136C3.1333 7.44502 2.61742 7.49082 2.27186 7.20312C2.10682 7.06591 2.00511 6.87089 1.98553 6.6539C1.96595 6.43622 2.03154 6.22479 2.17025 6.05897L5.76864 1.7567C5.90754 1.59058 6.10421 1.48824 6.32241 1.46851C6.34796 1.46617 6.37341 1.465 6.39866 1.465C6.58936 1.465 6.77163 1.53013 6.91749 1.65152C7.26236 1.9398 7.30905 2.45309 7.02037 2.79704L3.42248 7.10136ZM5.50178 6.90107L7.1957 4.87449L9.71884 6.97646L8.02621 9.00196L5.50178 6.90107ZM8.30392 14.8209L10.0445 16.2682C8.93532 17.5984 8.07447 19.1319 7.51835 20.7667C7.19756 20.7189 6.87089 20.6945 6.54061 20.6945C6.05742 20.6945 5.58264 20.7483 5.12187 20.8495C5.74641 18.6411 6.82968 16.5863 8.30392 14.8209ZM2.95416 30.7956C1.996 29.8397 1.46827 28.569 1.46827 27.2175C1.46827 25.8662 1.99591 24.5964 2.95416 23.6416C3.91223 22.6857 5.18599 22.1593 6.54061 22.1593C7.89503 22.1593 9.16791 22.6857 10.1246 23.6412C10.1248 23.6414 10.125 23.6416 10.1253 23.6419C11.0832 24.5963 11.6108 25.8661 11.6108 27.2174C11.6108 28.5689 11.0831 29.8396 10.1249 30.7955C8.14896 32.7667 4.93215 32.7665 2.95416 30.7956ZM16.278 39.6784V41.0345C13.6563 40.2617 11.2653 38.8478 9.31945 36.9065C8.35561 35.9448 7.52285 34.8804 6.8332 33.7309C7.63366 33.6955 8.42805 33.5132 9.17398 33.1868C9.68262 33.9423 10.268 34.6538 10.9226 35.307C12.4615 36.8422 14.3375 38.0035 16.3834 38.697C16.315 39.0136 16.278 39.3417 16.278 39.6784ZM24.1385 44.481H17.7464V39.6785C17.7464 37.9204 19.1801 36.49 20.9424 36.49C22.7047 36.49 24.1384 37.9204 24.1384 39.6785V44.481H24.1385ZM32.5706 36.9068C30.6256 38.8495 28.2328 40.2645 25.6069 41.0375V39.6784C25.6069 39.3427 25.5702 39.0155 25.5023 38.6998C27.5516 38.0061 29.4302 36.8437 30.9707 35.307C31.6369 34.6423 32.2324 33.9183 32.7452 33.1507H35.3899C34.6399 34.5251 33.6952 35.785 32.5706 36.9068Z" fill="#F66359"/>
</svg>
